<svg width="111" xmlns="http://www.w3.org/2000/svg" height="45" id="screenshot-54fecaf6-165c-80d4-8007-e7c61df37ea7" viewBox="0 0 111 45" xmlns:xlink="http://www.w3.org/1999/xlink" fill="none" version="1.1"><g id="shape-54fecaf6-165c-80d4-8007-e7c61df37ea7" width="24" class="lucide lucide-scroll-text-icon lucide-scroll-text" height="24" rx="0" ry="0" style="fill: rgb(0, 0, 0);"><g id="shape-54fecaf6-165c-80d4-8007-e7c61df447b4" style="display: none;"><g class="fills" id="fills-54fecaf6-165c-80d4-8007-e7c61df447b4"><rect width="24" height="24" x="38" stroke-linejoin="round" transform="matrix(1.000000, 0.000000, 0.000000, 1.000000, 0.000000, 0.000000)" style="fill: none;" ry="0" fill="none" stroke-linecap="round" rx="0" y="0"/></g><g fill="none" stroke-linejoin="round" stroke-linecap="round" id="strokes-e3581682-0a41-8007-8007-e7c9bf6f6909-54fecaf6-165c-80d4-8007-e7c61df447b4" class="strokes"><g class="stroke-shape"><rect rx="0" ry="0" x="38" y="0" transform="matrix(1.000000, 0.000000, 0.000000, 1.000000, 0.000000, 0.000000)" width="24" height="24" style="fill: none; stroke-width: 2; stroke: rgb(0, 0, 0); stroke-opacity: 1;"/></g></g></g><g id="shape-54fecaf6-165c-80d4-8007-e7c5fb4a9877" width="24" class="lucide lucide-bitcoin-icon lucide-bitcoin" height="24" rx="0" ry="0" style="fill: rgb(0, 0, 0);"><g id="shape-54fecaf6-165c-80d4-8007-e7c5fb4ad6de" style="display: none;"><g class="fills" id="fills-54fecaf6-165c-80d4-8007-e7c5fb4ad6de"><rect width="17" height="14" x="0" stroke-linejoin="round" transform="matrix(1.000000, 0.000000, 0.000000, 1.000000, 0.000000, 0.000000)" style="fill: none;" ry="0" fill="none" stroke-linecap="round" rx="0" y="8"/></g><g fill="none" stroke-linejoin="round" stroke-linecap="round" id="strokes-e3581682-0a41-8007-8007-e7c9bf705579-54fecaf6-165c-80d4-8007-e7c5fb4ad6de" class="strokes"><g class="stroke-shape"><rect rx="0" ry="0" x="0" y="8" transform="matrix(1.000000, 0.000000, 0.000000, 1.000000, 0.000000, 0.000000)" width="17" height="14" style="fill: none; stroke-width: 2; stroke: rgb(0, 0, 0); stroke-opacity: 1;"/></g></g></g></g><g id="shape-54fecaf6-165c-80d4-8007-e7c6de9cdf5e" width="24" class="lucide lucide-columns4-icon lucide-columns-4" height="24" rx="0" ry="0" style="fill: rgb(0, 0, 0);"><g id="shape-54fecaf6-165c-80d4-8007-e7c6de9ddcc6" style="display: none;"><g class="fills" id="fills-54fecaf6-165c-80d4-8007-e7c6de9ddcc6"><rect width="14" height="10" x="79" stroke-linejoin="round" transform="matrix(1.000000, 0.000000, 0.000000, 1.000000, 0.000000, 0.000000)" style="fill: none;" ry="0" fill="none" stroke-linecap="round" rx="0" y="35"/></g><g fill="none" stroke-linejoin="round" stroke-linecap="round" id="strokes-e3581682-0a41-8007-8007-e7c9bf70f9e2-54fecaf6-165c-80d4-8007-e7c6de9ddcc6" class="strokes"><g class="stroke-shape"><rect rx="0" ry="0" x="79" y="35" transform="matrix(1.000000, 0.000000, 0.000000, 1.000000, 0.000000, 0.000000)" width="14" height="10" style="fill: none; stroke-width: 2; stroke: rgb(0, 0, 0); stroke-opacity: 1;"/></g></g></g><g id="shape-54fecaf6-165c-80d4-8007-e7c6de9e7a09"><g class="fills" id="fills-54fecaf6-165c-80d4-8007-e7c6de9e7a09"><path d="M83.375,36.25L83.375,43.75" fill="none" stroke-linejoin="round" stroke-linecap="round" style="fill: none;"/></g><g fill="none" stroke-linejoin="round" stroke-linecap="round" id="strokes-e3581682-0a41-8007-8007-e7c9bf717f30-54fecaf6-165c-80d4-8007-e7c6de9e7a09" class="strokes"><g class="stroke-shape"><path d="M83.375,36.25L83.375,43.75" style="fill: none; stroke-width: 2; stroke: rgb(0, 0, 0); stroke-opacity: 1;"/></g></g></g><g id="shape-54fecaf6-165c-80d4-8007-e7c6de9e7a0a"><g class="fills" id="fills-54fecaf6-165c-80d4-8007-e7c6de9e7a0a"><path d="M86,36.25L86,43.75" fill="none" stroke-linejoin="round" stroke-linecap="round" style="fill: none;"/></g><g fill="none" stroke-linejoin="round" stroke-linecap="round" id="strokes-e3581682-0a41-8007-8007-e7c9bf71bd2e-54fecaf6-165c-80d4-8007-e7c6de9e7a0a" class="strokes"><g class="stroke-shape"><path d="M86,36.25L86,43.75" style="fill: none; stroke-width: 2; stroke: rgb(0, 0, 0); stroke-opacity: 1;"/></g></g></g><g id="shape-54fecaf6-165c-80d4-8007-e7c6de9ec7e3"><g class="fills" id="fills-54fecaf6-165c-80d4-8007-e7c6de9ec7e3"><path d="M88.625,36.25L88.625,43.75" fill="none" stroke-linejoin="round" stroke-linecap="round" style="fill: none;"/></g><g fill="none" stroke-linejoin="round" stroke-linecap="round" id="strokes-e3581682-0a41-8007-8007-e7c9bf723f4f-54fecaf6-165c-80d4-8007-e7c6de9ec7e3" class="strokes"><g class="stroke-shape"><path d="M88.625,36.25L88.625,43.75" style="fill: none; stroke-width: 2; stroke: rgb(0, 0, 0); stroke-opacity: 1;"/></g></g></g></g><g id="shape-54fecaf6-165c-80d4-8007-e7c6f6785eb7" width="24" class="lucide lucide-columns4-icon lucide-columns-4" height="24" rx="0" ry="0" style="fill: rgb(0, 0, 0);"><g id="shape-54fecaf6-165c-80d4-8007-e7c6f6785eb8" style="display: none;"><g class="fills" id="fills-54fecaf6-165c-80d4-8007-e7c6f6785eb8"><rect width="13" height="10" x="98" stroke-linejoin="round" transform="matrix(1.000000, 0.000000, 0.000000, 1.000000, 0.000000, 0.000000)" style="fill: none;" ry="0" fill="none" stroke-linecap="round" rx="0" y="35"/></g><g fill="none" stroke-linejoin="round" stroke-linecap="round" id="strokes-e3581682-0a41-8007-8007-e7c9bf72a5c0-54fecaf6-165c-80d4-8007-e7c6f6785eb8" class="strokes"><g class="stroke-shape"><rect rx="0" ry="0" x="98" y="35" transform="matrix(1.000000, 0.000000, 0.000000, 1.000000, 0.000000, 0.000000)" width="13" height="10" style="fill: none; stroke-width: 2; stroke: rgb(0, 0, 0); stroke-opacity: 1;"/></g></g></g><g id="shape-54fecaf6-165c-80d4-8007-e7c56dce74bf"><g class="fills" id="fills-54fecaf6-165c-80d4-8007-e7c56dce74bf"><path d="M95.8997802734375,36.45941162109375C97.6444091796875,36.5496826171875,97.7032470703125,33.89715576171875,95.95849609375,33.806396484375M95.8997802734375,36.45941162109375L93.8067626953125,36.35076904296875M95.9000244140625,36.4593505859375L95.8834228515625,37.2174072265625M95.958740234375,33.80633544921875C97.7034912109375,33.8970947265625,97.76220703125,31.24407958984375,96.017333984375,31.15380859375M95.958740234375,33.80633544921875L94.5628662109375,33.73431396484375M96.017333984375,31.1534423828125L93.923583984375,31.0452880859375M96.016845703125,31.15386962890625L96.033935546875,30.395751953125M94.487060546875,37.14501953125L94.6378173828125,30.32330322265625" fill="none" stroke-linejoin="round" stroke-linecap="round" style="fill: none;"/></g><g fill="none" stroke-linejoin="round" stroke-linecap="round" id="strokes-e3581682-0a41-8007-8007-e7c9bf72f728-54fecaf6-165c-80d4-8007-e7c56dce74bf" class="strokes"><g class="stroke-shape"><path d="M95.8997802734375,36.45941162109375C97.6444091796875,36.5496826171875,97.7032470703125,33.89715576171875,95.95849609375,33.806396484375M95.8997802734375,36.45941162109375L93.8067626953125,36.35076904296875M95.9000244140625,36.4593505859375L95.8834228515625,37.2174072265625M95.958740234375,33.80633544921875C97.7034912109375,33.8970947265625,97.76220703125,31.24407958984375,96.017333984375,31.15380859375M95.958740234375,33.80633544921875L94.5628662109375,33.73431396484375M96.017333984375,31.1534423828125L93.923583984375,31.0452880859375M96.016845703125,31.15386962890625L96.033935546875,30.395751953125M94.487060546875,37.14501953125L94.6378173828125,30.32330322265625" style="fill: none; stroke-width: 0.8; stroke: rgb(0, 0, 0); stroke-opacity: 1;"/></g></g></g><g id="shape-54fecaf6-165c-80d4-8007-e7c6de9e1637"><g class="fills" id="fills-54fecaf6-165c-80d4-8007-e7c6de9e1637"><rect width="10.5" height="7.5" x="80.75" stroke-linejoin="round" transform="matrix(1.000000, 0.000000, 0.000000, 1.000000, 0.000000, 0.000000)" style="fill: none;" ry="2" fill="none" stroke-linecap="round" rx="2" y="36.25"/></g><g fill="none" stroke-linejoin="round" stroke-linecap="round" id="strokes-e3581682-0a41-8007-8007-e7c9bf737277-54fecaf6-165c-80d4-8007-e7c6de9e1637" class="strokes"><g class="stroke-shape"><rect rx="2" ry="2" x="80.75" y="36.25" transform="matrix(1.000000, 0.000000, 0.000000, 1.000000, 0.000000, 0.000000)" width="10.5" height="7.5" style="fill: none; stroke-width: 2; stroke: rgb(0, 0, 0); stroke-opacity: 1;"/></g></g></g><g id="shape-54fecaf6-165c-80d4-8007-e7c6f6785eb9"><g class="fills" id="fills-54fecaf6-165c-80d4-8007-e7c6f6785eb9"><rect width="9.75" height="7.5" x="99.625" stroke-linejoin="round" transform="matrix(1.000000, 0.000000, 0.000000, 1.000000, 0.000000, 0.000000)" style="fill: none;" ry="2" fill="none" stroke-linecap="round" rx="2" y="36.25"/></g><g fill="none" stroke-linejoin="round" stroke-linecap="round" id="strokes-e3581682-0a41-8007-8007-e7c9bf73aa1e-54fecaf6-165c-80d4-8007-e7c6f6785eb9" class="strokes"><g class="stroke-shape"><rect rx="2" ry="2" x="99.625" y="36.25" transform="matrix(1.000000, 0.000000, 0.000000, 1.000000, 0.000000, 0.000000)" width="9.75" height="7.5" style="fill: none; stroke-width: 2; stroke: rgb(0, 0, 0); stroke-opacity: 1;"/></g></g></g><g id="shape-54fecaf6-165c-80d4-8007-e7c8669b5cd3"><g class="fills" id="fills-54fecaf6-165c-80d4-8007-e7c8669b5cd3"><path d="M94.25,39.3333740234375L93.416748046875,40.5L94.25,41.6666259765625" fill="none" stroke-linejoin="round" stroke-linecap="round" style="fill: none;"/></g><g fill="none" stroke-linejoin="round" stroke-linecap="round" id="strokes-e3581682-0a41-8007-8007-e7c9bf73e59c-54fecaf6-165c-80d4-8007-e7c8669b5cd3" class="strokes"><g class="stroke-shape"><path d="M94.25,39.3333740234375L93.416748046875,40.5L94.25,41.6666259765625" style="fill: none; stroke-width: 0.7; stroke: rgb(0, 0, 0); stroke-opacity: 1;"/></g></g></g><g id="shape-54fecaf6-165c-80d4-8007-e7c6f6785eba"><g class="fills" id="fills-54fecaf6-165c-80d4-8007-e7c6f6785eba"><path d="M102.0625,36.25L102.0625,43.75" fill="none" stroke-linejoin="round" stroke-linecap="round" style="fill: none;"/></g><g fill="none" stroke-linejoin="round" stroke-linecap="round" id="strokes-e3581682-0a41-8007-8007-e7c9bf741770-54fecaf6-165c-80d4-8007-e7c6f6785eba" class="strokes"><g class="stroke-shape"><path d="M102.0625,36.25L102.0625,43.75" style="fill: none; stroke-width: 2; stroke: rgb(0, 0, 0); stroke-opacity: 1;"/></g></g></g><g id="shape-54fecaf6-165c-80d4-8007-e7c6f6785ebb"><g class="fills" id="fills-54fecaf6-165c-80d4-8007-e7c6f6785ebb"><path d="M104.5,36.25L104.5,43.75" fill="none" stroke-linejoin="round" stroke-linecap="round" style="fill: none;"/></g><g fill="none" stroke-linejoin="round" stroke-linecap="round" id="strokes-e3581682-0a41-8007-8007-e7c9bf7454c8-54fecaf6-165c-80d4-8007-e7c6f6785ebb" class="strokes"><g class="stroke-shape"><path d="M104.5,36.25L104.5,43.75" style="fill: none; stroke-width: 2; stroke: rgb(0, 0, 0); stroke-opacity: 1;"/></g></g></g><g id="shape-54fecaf6-165c-80d4-8007-e7c6f6785ebc"><g class="fills" id="fills-54fecaf6-165c-80d4-8007-e7c6f6785ebc"><path d="M106.9375,36.25L106.9375,43.75" fill="none" stroke-linejoin="round" stroke-linecap="round" style="fill: none;"/></g><g fill="none" stroke-linejoin="round" stroke-linecap="round" id="strokes-e3581682-0a41-8007-8007-e7c9bf74af69-54fecaf6-165c-80d4-8007-e7c6f6785ebc" class="strokes"><g class="stroke-shape"><path d="M106.9375,36.25L106.9375,43.75" style="fill: none; stroke-width: 2; stroke: rgb(0, 0, 0); stroke-opacity: 1;"/></g></g></g><g id="shape-54fecaf6-165c-80d4-8007-e7c8669a004f" width="24" class="lucide lucide-move-horizontal-icon lucide-move-horizontal" height="24" rx="0" ry="0" style="fill: rgb(0, 0, 0);"><g id="shape-54fecaf6-165c-80d4-8007-e7c8669ad1ed" style="display: none;"><g class="fills" id="fills-54fecaf6-165c-80d4-8007-e7c8669ad1ed"><rect width="5" height="7" x="93" stroke-linejoin="round" transform="matrix(1.000000, 0.000000, 0.000000, 1.000000, 0.000000, 0.000000)" style="fill: none;" ry="0" fill="none" stroke-linecap="round" rx="0" y="37"/></g><g fill="none" stroke-linejoin="round" stroke-linecap="round" id="strokes-e3581682-0a41-8007-8007-e7c9bf75205f-54fecaf6-165c-80d4-8007-e7c8669ad1ed" class="strokes"><g class="inner-stroke-shape" transform="matrix(1.000000, 0.000000, 0.000000, 1.000000, 0.000000, 0.000000)"><defs><clipPath id="inner-stroke-render-20-54fecaf6-165c-80d4-8007-e7c8669ad1ed-0"><use href="#stroke-shape-render-20-54fecaf6-165c-80d4-8007-e7c8669ad1ed-0"/></clipPath><rect rx="0" ry="0" x="93" y="37" width="5" height="7" id="stroke-shape-render-20-54fecaf6-165c-80d4-8007-e7c8669ad1ed-0" style="fill: none; stroke-width: 1.4; stroke: rgb(0, 0, 0); stroke-opacity: 1;"/></defs><use href="#stroke-shape-render-20-54fecaf6-165c-80d4-8007-e7c8669ad1ed-0" clip-path="url('#inner-stroke-render-20-54fecaf6-165c-80d4-8007-e7c8669ad1ed-0')"/></g></g></g><g id="shape-54fecaf6-165c-80d4-8007-e7c8669b2968"><g class="fills" id="fills-54fecaf6-165c-80d4-8007-e7c8669b2968"><path d="M96.75,39.3333740234375C96.75,39.3333740234375,97.583251953125,39.72222900390625,97.583251953125,40.5C97.583251953125,41.27777099609375,96.75,41.6666259765625,96.75,41.6666259765625" fill="none" stroke-linejoin="round" stroke-linecap="round" style="fill: none;"/></g><g fill="none" stroke-linejoin="round" stroke-linecap="round" id="strokes-e3581682-0a41-8007-8007-e7c9bf75a089-54fecaf6-165c-80d4-8007-e7c8669b2968" class="strokes"><g class="stroke-shape"><path d="M96.75,39.3333740234375C96.75,39.3333740234375,97.583251953125,39.72222900390625,97.583251953125,40.5C97.583251953125,41.27777099609375,96.75,41.6666259765625,96.75,41.6666259765625" style="fill: none; stroke-width: 0.7; stroke: rgb(0, 0, 0); stroke-opacity: 1;"/></g></g></g><g id="shape-54fecaf6-165c-80d4-8007-e7c8669b2969"><g class="fills" id="fills-54fecaf6-165c-80d4-8007-e7c8669b2969"><path d="M93.416748046875,40.5L97.583251953125,40.5" fill="none" stroke-linejoin="round" stroke-linecap="round" style="fill: none;"/></g><g fill="none" stroke-linejoin="round" stroke-linecap="round" id="strokes-e3581682-0a41-8007-8007-e7c9bf75d3bc-54fecaf6-165c-80d4-8007-e7c8669b2969" class="strokes"><g class="stroke-shape"><path d="M93.416748046875,40.5L97.583251953125,40.5" style="fill: none; stroke-width: 0.7; stroke: rgb(0, 0, 0); stroke-opacity: 1;"/></g></g></g></g></g></g></svg>