<svg width="26.906" xmlns="http://www.w3.org/2000/svg" height="28.03" id="screenshot-54fecaf6-165c-80d4-8007-e7c7ef588e6a" viewBox="-4.977 0 26.906 28.03" xmlns:xlink="http://www.w3.org/1999/xlink" fill="none" version="1.1"><g id="shape-54fecaf6-165c-80d4-8007-e7c7ef588e6a" width="24" class="lucide lucide-chevrons-up-icon lucide-chevrons-up" height="24" rx="0" ry="0" style="fill: rgb(0, 0, 0);"><g id="shape-54fecaf6-165c-80d4-8007-e7c7ef599995" style="display: none;"><g class="fills" id="fills-54fecaf6-165c-80d4-8007-e7c7ef599995"><rect width="10" height="9.000000000000114" x="13.53263322313478" stroke-linejoin="round" transform="matrix(0.001978, 0.999998, -0.999998, 0.001978, 31.527547, -5.526778)" style="fill: none;" ry="0" fill="none" stroke-linecap="round" rx="0" y="8.531594372461882"/></g><g fill="none" stroke-linejoin="round" stroke-linecap="round" id="strokes-124738ea-59fc-8014-8007-e7c91ae57317-54fecaf6-165c-80d4-8007-e7c7ef599995" class="strokes"><g class="inner-stroke-shape" transform="matrix(0.001978, 0.999998, -0.999998, 0.001978, 31.527547, -5.526778)"><defs><clipPath id="inner-stroke-render-2-54fecaf6-165c-80d4-8007-e7c7ef599995-0"><use href="#stroke-shape-render-2-54fecaf6-165c-80d4-8007-e7c7ef599995-0"/></clipPath><rect rx="0" ry="0" x="13.53263322313478" y="8.531594372461882" width="10" height="9.000000000000114" id="stroke-shape-render-2-54fecaf6-165c-80d4-8007-e7c7ef599995-0" style="fill: none; stroke-width: 2; stroke: rgb(0, 0, 0); stroke-opacity: 1;"/></defs><use href="#stroke-shape-render-2-54fecaf6-165c-80d4-8007-e7c7ef599995-0" clip-path="url('#inner-stroke-render-2-54fecaf6-165c-80d4-8007-e7c7ef599995-0')"/></g></g></g><g id="shape-54fecaf6-165c-80d4-8007-e7c7ef5a2237"><g class="fills" id="fills-54fecaf6-165c-80d4-8007-e7c7ef5a2237"><path d="M18.91179084777832,15.114133834838867L20.78264045715332,13.027158737182617L18.90349006652832,10.947507858276367" fill="none" stroke-linejoin="round" stroke-linecap="round" style="fill: none;"/></g><g fill="none" stroke-linejoin="round" stroke-linecap="round" id="strokes-124738ea-59fc-8014-8007-e7c91ae69f60-54fecaf6-165c-80d4-8007-e7c7ef5a2237" class="strokes"><g class="stroke-shape"><path d="M18.91179084777832,15.114133834838867L20.78264045715332,13.027158737182617L18.90349006652832,10.947507858276367" style="fill: none; stroke-width: 1; stroke: rgb(0, 0, 0); stroke-opacity: 1;"/></g></g></g><g id="shape-54fecaf6-165c-80d4-8007-e7c61df56c77"><g class="fills" id="fills-54fecaf6-165c-80d4-8007-e7c61df56c77"><path d="M1.0227525234222412,23.022703170776367L13.02275276184082,23.022703170776367C14.12736701965332,23.022703170776367,15.02275276184082,22.127256393432617,15.02275276184082,21.022703170776367L15.02275276184082,20.022703170776367C15.02275276184082,19.470396041870117,14.57499885559082,19.022703170776367,14.02275276184082,19.022703170776367L4.02275276184082,19.022703170776367C3.470506429672241,19.022703170776367,3.022752523422241,19.470396041870117,3.022752523422241,20.022703170776367L3.022752523422241,21.022703170776367C3.022752523422241,22.127256393432617,2.127366781234741,23.022703170776367,1.0227525234222412,23.022703170776367C-0.08186168223619461,23.022703170776367,-0.977247416973114,22.127256393432617,-0.977247416973114,21.022703170776367L-0.977247416973114,7.022703647613525C-0.977247416973114,5.918150424957275,-1.8726332187652588,5.022703647613525,-2.977247476577759,5.022703647613525C-4.08173942565918,5.022703647613525,-4.97724723815918,5.918150424957275,-4.97724723815918,7.022703647613525L-4.97724723815918,9.022703170776367C-4.97724723815918,9.575010299682617,-4.52949333190918,10.022703170776367,-3.977247476577759,10.022703170776367L-0.977247416973114,10.022703170776367" fill="none" stroke-linejoin="round" stroke-linecap="round" style="fill: none;"/></g><g fill="none" stroke-linejoin="round" stroke-linecap="round" id="strokes-124738ea-59fc-8014-8007-e7c91ae708dd-54fecaf6-165c-80d4-8007-e7c61df56c77" class="strokes"><g class="stroke-shape"><path d="M1.0227525234222412,23.022703170776367L13.02275276184082,23.022703170776367C14.12736701965332,23.022703170776367,15.02275276184082,22.127256393432617,15.02275276184082,21.022703170776367L15.02275276184082,20.022703170776367C15.02275276184082,19.470396041870117,14.57499885559082,19.022703170776367,14.02275276184082,19.022703170776367L4.02275276184082,19.022703170776367C3.470506429672241,19.022703170776367,3.022752523422241,19.470396041870117,3.022752523422241,20.022703170776367L3.022752523422241,21.022703170776367C3.022752523422241,22.127256393432617,2.127366781234741,23.022703170776367,1.0227525234222412,23.022703170776367C-0.08186168223619461,23.022703170776367,-0.977247416973114,22.127256393432617,-0.977247416973114,21.022703170776367L-0.977247416973114,7.022703647613525C-0.977247416973114,5.918150424957275,-1.8726332187652588,5.022703647613525,-2.977247476577759,5.022703647613525C-4.08173942565918,5.022703647613525,-4.97724723815918,5.918150424957275,-4.97724723815918,7.022703647613525L-4.97724723815918,9.022703170776367C-4.97724723815918,9.575010299682617,-4.52949333190918,10.022703170776367,-3.977247476577759,10.022703170776367L-0.977247416973114,10.022703170776367" style="fill: none; stroke-width: 2; stroke: rgb(0, 0, 0); stroke-opacity: 1;"/></g></g></g><g id="shape-54fecaf6-165c-80d4-8007-e7c61df539b3"><g class="fills" id="fills-54fecaf6-165c-80d4-8007-e7c61df539b3"><path d="M13.02275276184082,19.022703170776367L13.02275276184082,7.022703647613525C13.02275276184082,5.918150424957275,12.02275276184082,5.022703647613525,11.02275276184082,5.022703647613525L7.37065315246582,5.022703647613525L3.627977132797241,5.022703647613525L0.565110981464386,5.022703647613525L-1.9772474765777588,5.022703647613525" fill="none" stroke-linejoin="round" stroke-linecap="round" style="fill: none;"/></g><g fill="none" stroke-linejoin="round" stroke-linecap="round" id="strokes-124738ea-59fc-8014-8007-e7c91ae7ad01-54fecaf6-165c-80d4-8007-e7c61df539b3" class="strokes"><g class="stroke-shape"><path d="M13.02275276184082,19.022703170776367L13.02275276184082,7.022703647613525C13.02275276184082,5.918150424957275,12.02275276184082,5.022703647613525,11.02275276184082,5.022703647613525L7.37065315246582,5.022703647613525L3.627977132797241,5.022703647613525L0.565110981464386,5.022703647613525L-1.9772474765777588,5.022703647613525" style="fill: none; stroke-width: 2; stroke: rgb(0, 0, 0); stroke-opacity: 1;"/></g></g></g><g id="shape-54fecaf6-165c-80d4-8007-e7c5fb4ad6df"><g class="fills" id="fills-54fecaf6-165c-80d4-8007-e7c5fb4ad6df"><path d="M5.62431526184082,16.060239791870117C8.62675666809082,16.484312057495117,9.36808967590332,13.116758346557617,6.36577033996582,12.692258834838867M5.62431526184082,16.060239791870117L2.022752523422241,15.551206588745117M5.62492561340332,16.060239791870117L5.41337776184082,17.022703170776367M6.36638069152832,12.692258834838867C9.36870002746582,13.116758346557617,10.11015510559082,9.748716354370117,7.10722541809082,9.324644088745117M6.36638069152832,12.692258834838867L3.964036703109741,12.353086471557617M7.10722541809082,9.324216842651367L3.504441976547241,8.815610885620117M7.10673713684082,9.324644088745117L7.31889533996582,8.362241744995117M3.010423421859741,16.683103561401367L4.91642951965332,8.022703170776367" fill="none" stroke-linejoin="round" stroke-linecap="round" style="fill: none;"/></g><g fill="none" stroke-linejoin="round" stroke-linecap="round" id="strokes-124738ea-59fc-8014-8007-e7c91ae82acb-54fecaf6-165c-80d4-8007-e7c5fb4ad6df" class="strokes"><g class="stroke-shape"><path d="M5.62431526184082,16.060239791870117C8.62675666809082,16.484312057495117,9.36808967590332,13.116758346557617,6.36577033996582,12.692258834838867M5.62431526184082,16.060239791870117L2.022752523422241,15.551206588745117M5.62492561340332,16.060239791870117L5.41337776184082,17.022703170776367M6.36638069152832,12.692258834838867C9.36870002746582,13.116758346557617,10.11015510559082,9.748716354370117,7.10722541809082,9.324644088745117M6.36638069152832,12.692258834838867L3.964036703109741,12.353086471557617M7.10722541809082,9.324216842651367L3.504441976547241,8.815610885620117M7.10673713684082,9.324644088745117L7.31889533996582,8.362241744995117M3.010423421859741,16.683103561401367L4.91642951965332,8.022703170776367" style="fill: none; stroke-width: 2; stroke: rgb(0, 0, 0); stroke-opacity: 1;"/></g></g></g><g id="shape-54fecaf6-165c-80d4-8007-e7c7ef5a6bd0"><g class="fills" id="fills-54fecaf6-165c-80d4-8007-e7c7ef5a6bd0"><path d="M16.28679084777832,15.119382858276367L18.15764045715332,13.032285690307617L16.27849006652832,10.952695846557617" fill="none" stroke-linejoin="round" stroke-linecap="round" style="fill: none;"/></g><g fill="none" stroke-linejoin="round" stroke-linecap="round" id="strokes-124738ea-59fc-8014-8007-e7c91ae8ad1e-54fecaf6-165c-80d4-8007-e7c7ef5a6bd0" class="strokes"><g class="stroke-shape"><path d="M16.28679084777832,15.119382858276367L18.15764045715332,13.032285690307617L16.27849006652832,10.952695846557617" style="fill: none; stroke-width: 1; stroke: rgb(0, 0, 0); stroke-opacity: 1;"/></g></g></g></g></svg>